<svg width="125" height="30" viewBox="0 0 125 30" fill="none" xmlns="http://www.w3.org/2000/svg">
<path d="M13.2418 10.2239C13.441 10.2239 13.6076 10.2326 13.743 10.25C13.8783 10.2686 14.0011 10.3009 14.1088 10.3506C14.2178 10.4002 14.3206 10.4698 14.4208 10.5579C14.5198 10.6474 14.6326 10.7691 14.7591 10.9218L24.1315 22.6671C24.0951 22.2908 24.0688 21.927 24.0513 21.5718C24.0325 21.2191 24.025 20.8851 24.025 20.5734V10.2227H28.0608V29.7816H25.6764C25.3243 29.7816 25.0261 29.7282 24.7818 29.6201C24.5387 29.5121 24.3031 29.3159 24.0776 29.029L14.7729 17.3769C14.7992 17.7171 14.823 18.0499 14.8406 18.3765C14.8594 18.7044 14.8669 19.0111 14.8669 19.2967V29.7803H10.8323V10.2214H13.2418V10.2239ZM42.3098 14.1965C42.1745 14.4114 42.0316 14.5728 41.8838 14.6808C41.7347 14.7889 41.543 14.841 41.3087 14.841C41.1007 14.841 40.8776 14.7765 40.6383 14.6473C40.399 14.5182 40.1283 14.3716 39.8264 14.2114C39.5232 14.05 39.1786 13.9047 38.7902 13.7743C38.4005 13.6452 37.9582 13.5793 37.462 13.5793C36.6037 13.5793 35.9659 13.7606 35.5449 14.1233C35.1252 14.4846 34.9159 14.9752 34.9159 15.5924C34.9159 15.986 35.0425 16.3126 35.2956 16.5722C35.5487 16.8317 35.8807 17.0565 36.2904 17.244C36.7014 17.4303 37.1713 17.6041 37.7001 17.7618C38.2276 17.9171 38.7676 18.0922 39.3189 18.2847C39.869 18.4771 40.409 18.7019 40.9378 18.9627C41.4653 19.221 41.9351 19.5538 42.3461 19.9562C42.7571 20.3585 43.0892 20.849 43.341 21.4265C43.5941 22.004 43.7207 22.6981 43.7207 23.514C43.7207 24.4193 43.5628 25.2638 43.247 26.0511C42.9313 26.8397 42.4727 27.5264 41.8725 28.1125C41.2723 28.6987 40.5318 29.1607 39.651 29.4935C38.7701 29.83 37.7702 29.9989 36.6501 29.9989C36.0361 29.9989 35.4109 29.9356 34.7743 29.8101C34.1378 29.6847 33.5213 29.5084 32.9249 29.2799C32.3285 29.0514 31.7697 28.7819 31.2459 28.4677C30.7222 28.1548 30.2661 27.8058 29.8777 27.4208L31.2321 25.2985C31.3324 25.1383 31.4715 25.008 31.6519 24.9098C31.8323 24.8117 32.0265 24.7621 32.2345 24.7621C32.5052 24.7621 32.7783 24.8478 33.054 25.0166C33.3296 25.1868 33.6404 25.3755 33.9887 25.5804C34.3358 25.7866 34.7355 25.9741 35.1878 26.1442C35.6389 26.3144 36.1727 26.3988 36.7866 26.3988C37.6174 26.3988 38.2626 26.2175 38.7225 25.8549C39.1836 25.4935 39.4141 24.9185 39.4141 24.13C39.4141 23.6742 39.2876 23.3029 39.0345 23.0173C38.7814 22.7317 38.4493 22.4932 38.0396 22.307C37.6286 22.1194 37.1613 21.953 36.6363 21.8102C36.1113 21.6649 35.5737 21.506 35.0224 21.3321C34.4711 21.1583 33.9348 20.9434 33.4098 20.6876C32.8861 20.433 32.4187 20.0965 32.0077 19.6805C31.5968 19.2632 31.266 18.7454 31.0129 18.1232C30.7598 17.5011 30.6332 16.7336 30.6332 15.8208C30.6332 15.0882 30.7823 14.3716 31.0793 13.6737C31.3775 12.9746 31.816 12.3536 32.3937 11.8072C32.9713 11.2621 33.6805 10.8249 34.52 10.4983C35.3595 10.1705 36.3218 10.0078 37.4056 10.0078C38.0108 10.0078 38.5997 10.055 39.1723 10.1481C39.7462 10.2413 40.29 10.3816 40.805 10.5642C41.3199 10.7467 41.7998 10.9678 42.2471 11.2211C42.6945 11.4769 43.0942 11.765 43.4463 12.0866L42.3098 14.1965ZM54.2031 26.1989C54.8171 26.1989 55.3659 26.0995 55.8483 25.8971C56.332 25.6972 56.7404 25.4066 57.075 25.0328C57.4095 24.6553 57.6651 24.197 57.8406 23.6556C58.0172 23.1142 58.1049 22.4994 58.1049 21.8115V10.2264H62.6821V21.8115C62.6821 23.0111 62.4854 24.1113 62.0932 25.1135C61.6998 26.1169 61.1372 26.9787 60.4067 27.704C59.6749 28.4305 58.7853 28.993 57.7378 29.3954C56.6903 29.7977 55.5125 30.0001 54.2031 30.0001C52.8837 30.0001 51.7022 29.7977 50.6547 29.3954C49.6072 28.993 48.7163 28.4305 47.9846 27.704C47.2541 26.9787 46.694 26.1169 46.3056 25.1135C45.9171 24.1101 45.7229 23.0111 45.7229 21.8115V10.2264H50.3013V21.7978C50.3013 22.487 50.389 23.1017 50.5657 23.6419C50.7424 24.1821 50.9967 24.6466 51.33 25.0253C51.6646 25.4066 52.0731 25.6972 52.5555 25.8971C53.0404 26.0983 53.5892 26.1989 54.2031 26.1989ZM70.2401 22.5479V29.7828H65.6617V10.2239H72.082C73.5104 10.2239 74.7258 10.3692 75.7319 10.661C76.7393 10.9516 77.5613 11.3564 78.1991 11.8768C78.8356 12.3959 79.2979 13.0081 79.5861 13.7147C79.8743 14.4213 80.0197 15.19 80.0197 16.0233C80.0197 16.6591 79.9345 17.2577 79.7628 17.8214C79.5911 18.3852 79.3355 18.9056 78.9985 19.3862C78.6589 19.8643 78.2429 20.2915 77.7518 20.6665C77.2581 21.044 76.6917 21.352 76.0527 21.5941C76.3584 21.7457 76.6466 21.9332 76.9135 22.1567C77.1804 22.3815 77.4122 22.6534 77.6127 22.9751L81.8102 29.7816H77.6615C76.8947 29.7816 76.3434 29.4959 76.0101 28.9222L72.7323 23.2445C72.587 22.9949 72.419 22.8136 72.2248 22.7081C72.0306 22.6 71.7575 22.5466 71.4054 22.5466L70.2401 22.5479ZM70.2401 19.4209H72.082C72.7047 19.4209 73.236 19.3427 73.6745 19.185C74.1131 19.0298 74.4714 18.8112 74.7509 18.5343C75.0315 18.2573 75.2345 17.9345 75.3598 17.5619C75.4876 17.1906 75.549 16.7907 75.549 16.361C75.549 15.5017 75.2671 14.8311 74.7032 14.3468C74.1381 13.8625 73.2648 13.6216 72.0807 13.6216H70.2389L70.2401 19.4209Z" fill="#F95A01"/>
<path d="M104.808 10.0088V13.4996H96.709V18.452H103.455V21.9553H96.709V29.5677H92.103V10.0088H104.808ZM117.026 22.1291V29.5677H112.447V22.1291L105.296 10.0088H109.332C109.729 10.0088 110.045 10.1007 110.28 10.2845C110.516 10.467 110.705 10.7017 110.849 10.9886L113.639 16.6799C113.865 17.1357 114.073 17.5567 114.262 17.9416C114.453 18.3279 114.619 18.7066 114.763 19.0841C114.897 18.6979 115.06 18.3129 115.251 17.928C115.441 17.543 115.643 17.127 115.861 16.6799L118.624 10.9886C118.678 10.8719 118.753 10.7551 118.847 10.6396C118.942 10.5229 119.051 10.4186 119.173 10.3242C119.295 10.2298 119.434 10.1528 119.592 10.0945C119.75 10.0374 119.924 10.0088 120.114 10.0088H124.177L117.026 22.1291Z" fill="#F95A01"/>
<path d="M7.00378 10.0088V29.5677H2.10962V10.0088H7.00378Z" fill="#F95A01"/>
<path d="M8.28731 5.55846C8.06428 6.03532 7.76857 6.4501 7.4002 6.80775C7.03182 7.1654 6.59954 7.44978 6.1021 7.66337C5.60592 7.87573 5.07465 7.98128 4.50956 7.98128C3.96075 7.98128 3.44201 7.87573 2.9546 7.66337C2.46594 7.44978 2.04243 7.16664 1.68282 6.80899C1.32321 6.4501 1.03628 6.03532 0.822017 5.55846C0.607757 5.08159 0.5 4.57244 0.5 4.02852C0.5 3.46721 0.606504 2.93943 0.820764 2.44642C1.03503 1.95465 1.32196 1.52994 1.68282 1.17229C2.04243 0.814645 2.46594 0.530264 2.9546 0.31791C3.44326 0.105556 3.96075 0 4.50956 0C5.07465 0 5.60592 0.105556 6.1021 0.31791C6.59954 0.531506 7.03182 0.814645 7.4002 1.17229C7.76857 1.52994 8.06428 1.95465 8.28731 2.44642C8.50909 2.93943 8.6206 3.46721 8.6206 4.02852C8.6206 4.57244 8.50909 5.08284 8.28731 5.55846Z" fill="#F95A01"/>
<path d="M88.2701 10.0088V29.5677H83.376V10.0088H88.2701Z" fill="#F95A01"/>
<path d="M89.5574 5.55722C89.3344 6.03284 89.0399 6.44885 88.6716 6.8065C88.3032 7.16291 87.8709 7.44853 87.3735 7.66089C86.8773 7.87448 86.3473 7.98004 85.7809 7.98004C85.2321 7.98004 84.7134 7.87448 84.226 7.66089C83.7386 7.44853 83.315 7.16415 82.9554 6.8065C82.5958 6.44885 82.3076 6.03284 82.0934 5.55722C81.8791 5.08035 81.7714 4.5712 81.7714 4.02727C81.7714 3.46596 81.8791 2.93943 82.0934 2.44642C82.3076 1.95465 82.5946 1.5287 82.9554 1.17229C83.315 0.814645 83.7386 0.529022 84.226 0.31791C84.7146 0.105556 85.2334 0 85.7809 0C86.346 0 86.8773 0.105556 87.3735 0.31791C87.8709 0.530264 88.3032 0.814645 88.6716 1.17229C89.0399 1.5287 89.3344 1.95465 89.5574 2.44642C89.7817 2.93943 89.892 3.46596 89.892 4.02727C89.8907 4.57244 89.7805 5.08159 89.5574 5.55722Z" fill="#F95A01"/>
</svg>
