<svg width="106" height="52" viewBox="0 0 106 52" fill="none" xmlns="http://www.w3.org/2000/svg">
  <g clip-path="url(#clip0)">
  <path d="M24.4162 3.96319C19.7136 4.06426 15.1455 5.54937 11.2846 8.23244C7.42358 10.9155 4.44147 14.6772 2.71206 19.0458C0.982649 23.4144 0.582901 28.1956 1.56286 32.7902C2.54283 37.3848 4.85885 41.5881 8.22078 44.8736C11.5827 48.159 15.8409 50.3805 20.4615 51.2592C25.0822 52.1378 29.8597 51.6346 34.1953 49.8129C38.5308 47.9911 42.2316 44.9317 44.8335 41.0182C47.4354 37.1047 48.8228 32.5115 48.8218 27.8138C48.7483 21.42 46.1368 15.3167 41.5607 10.8446C36.9846 6.37263 30.8182 3.89758 24.4162 3.96319ZM24.4162 38.1882C22.3367 38.2736 20.2791 37.7357 18.5081 36.6437C16.7372 35.5517 15.3339 33.9554 14.4787 32.0603C13.6234 30.1653 13.3553 28.0582 13.709 26.0098C14.0626 23.9613 15.0218 22.0653 16.4631 20.5657C17.9044 19.0662 19.7619 18.0317 21.7967 17.595C23.8316 17.1584 25.9507 17.3395 27.8816 18.1154C29.8124 18.8914 31.4667 20.2266 32.6316 21.9491C33.7965 23.6717 34.4187 25.703 34.4183 27.7817C34.4496 29.1235 34.2154 30.4581 33.7294 31.7094C33.2433 32.9607 32.515 34.104 31.5859 35.0736C30.6568 36.0433 29.5452 36.8203 28.3149 37.3602C27.0846 37.9002 25.7598 38.1926 24.4162 38.2203V38.1882Z" fill="#E92D80"/>
  <path d="M62.7865 4.89355V22.0061C65.0247 19.0435 68.1409 17.664 72.4994 17.664C80.5311 17.664 85.9392 21.942 85.9392 32.7977V50.7338H72.1675V32.9474C72.1675 30.1559 70.8718 28.0812 68.0446 28.0812C65.0354 28.0812 62.6902 30.8405 62.6902 35.4823V50.7338H48.7686V4.89355H62.7865Z" fill="#0B6478"/>
  <path d="M105.515 7.7708C105.515 6.23461 105.059 4.73274 104.204 3.45559C103.349 2.17844 102.135 1.18323 100.713 0.595845C99.292 0.00846129 97.7282 -0.14461 96.2198 0.155864C94.7113 0.456339 93.326 1.19696 92.2391 2.28396C91.1522 3.37096 90.4127 4.7554 90.1139 6.26233C89.8151 7.76926 89.9706 9.33097 90.5607 10.7496C91.1508 12.1683 92.149 13.3802 93.4289 14.2321C94.7089 15.084 96.2131 15.5377 97.7512 15.5356C99.8113 15.5328 101.786 14.7133 103.242 13.2574C104.697 11.8015 105.515 9.8283 105.515 7.7708Z" fill="#E92D80"/>
  <path d="M104.691 19.3428H90.7905V50.7335H104.691V19.3428Z" fill="#0B6478"/>
  </g>
  <defs>
    <clipPath id="clip0">
      <rect width="105.515" height="51.6584" fill="white" transform="translate(0 0.00585938)"/>
    </clipPath>
  </defs>
</svg>
